<svg width="800" height="800" viewBox="0 0 800 800" fill="none" xmlns="http://www.w3.org/2000/svg">
<path d="M400.013 316.667L566.68 483.333M566.68 316.667L400.013 483.333M150.274 465.153L247.989 591.82C259.739 607.05 265.614 614.667 272.992 620.157C279.526 625.017 286.897 628.64 294.737 630.843C303.589 633.333 313.208 633.333 332.445 633.333H593.347C630.683 633.333 649.353 633.333 663.613 626.067C676.157 619.677 686.357 609.477 692.747 596.933C700.013 582.673 700.013 564.003 700.013 526.667V273.333C700.013 235.997 700.013 217.328 692.747 203.067C686.357 190.523 676.157 180.324 663.613 173.933C649.353 166.667 630.683 166.667 593.347 166.667H332.445C313.208 166.667 303.589 166.667 294.737 169.156C286.897 171.36 279.526 174.983 272.992 179.845C265.614 185.333 259.739 192.949 247.989 208.181L150.274 334.847C132.288 358.163 123.294 369.823 119.835 382.68C116.782 394.023 116.782 405.977 119.835 417.32C123.294 430.177 132.288 441.837 150.274 465.153Z" stroke="black" stroke-width="25" stroke-linecap="round" stroke-linejoin="round"/>
</svg>
